<?xml version="1.0" encoding="UTF-8"?>
<!DOCTYPE svg PUBLIC "-//W3C//DTD SVG 1.1//EN" "http://www.w3.org/Graphics/SVG/1.1/DTD/svg11.dtd">
<svg xmlns="http://www.w3.org/2000/svg" version="1.1" width="128px" height="128px" style="shape-rendering:geometricPrecision; text-rendering:geometricPrecision; image-rendering:optimizeQuality; fill-rule:evenodd; clip-rule:evenodd" xmlns:xlink="http://www.w3.org/1999/xlink">
<g><path style="opacity:0.803" fill="#fefffe" d="M 57.5,4.5 C 69.5586,7.01442 81.5586,9.84775 93.5,13C 97.2706,16.3107 98.6039,20.3107 97.5,25C 102.833,26.3333 108.167,27.6667 113.5,29C 115.333,29.5 116.5,30.6667 117,32.5C 117.667,57.5 117.667,82.5 117,107.5C 115.353,113.817 111.52,118.317 105.5,121C 82.1667,121.667 58.8333,121.667 35.5,121C 27.9169,117.583 23.5835,111.75 22.5,103.5C 12.7636,99.9091 8.59691,92.9091 10,82.5C 15.4154,59.4186 21.0821,36.4186 27,13.5C 28.6856,11.0815 31.019,10.0815 34,10.5C 39.2079,11.26 44.3745,12.26 49.5,13.5C 50.1667,13.1667 50.8333,12.8333 51.5,12.5C 52.1021,8.56677 54.1021,5.9001 57.5,4.5 Z M 58.5,9.5 C 69.4276,12.4821 80.4276,15.3155 91.5,18C 91.8333,18.3333 92.1667,18.6667 92.5,19C 91.0937,23.4544 89.7604,27.9544 88.5,32.5C 87.6667,32.8333 86.8333,33.1667 86,33.5C 75.8148,31.0787 65.6481,28.5787 55.5,26C 55.1112,20.3595 56.1112,14.8595 58.5,9.5 Z M 31.5,15.5 C 38.0017,16.0422 44.335,17.3755 50.5,19.5C 49.0041,23.1904 49.3374,26.6904 51.5,30C 61.7905,32.8226 72.1238,35.4893 82.5,38C 85.562,38.7415 88.562,38.5748 91.5,37.5C 93.0205,34.9461 94.3539,32.2794 95.5,29.5C 100.948,30.8609 106.281,32.5276 111.5,34.5C 107.17,57.5049 102.003,80.5049 96,103.5C 91.5995,112.272 84.7662,114.772 75.5,111C 57.0278,106.799 38.6944,102.132 20.5,97C 16.9339,94.2021 14.9339,90.5354 14.5,86C 20.0926,62.4634 25.7593,38.9634 31.5,15.5 Z M 111.5,59.5 C 112.166,67.1594 112.5,74.9927 112.5,83C 112.624,91.9049 112.124,100.738 111,109.5C 109.437,112.728 106.937,114.895 103.5,116C 98.5715,117.418 93.5715,117.751 88.5,117C 93.5252,115.311 97.3585,112.144 100,107.5C 104.466,91.6356 108.3,75.6356 111.5,59.5 Z M 28.5,106.5 C 28.9169,105.876 29.5836,105.543 30.5,105.5C 46.5148,109.27 62.5148,113.103 78.5,117C 64.4528,117.909 50.4528,117.575 36.5,116C 32.4952,113.839 29.8286,110.672 28.5,106.5 Z"/></g>
<g><path style="opacity:0.766" fill="#fefffe" d="M 33.5,34.5 C 56.1667,40.1667 78.8333,45.8333 101.5,51.5C 101.99,53.9484 101.157,55.615 99,56.5C 77.4787,51.078 55.9787,45.578 34.5,40C 32.1904,38.5415 31.8571,36.7081 33.5,34.5 Z"/></g>
<g><path style="opacity:0.768" fill="#fefffe" d="M 29.5,47.5 C 51.9251,52.5229 74.2584,58.0229 96.5,64C 98.3937,65.0793 98.727,66.4126 97.5,68C 95.5,68.6667 93.5,68.6667 91.5,68C 70.8333,62.6667 50.1667,57.3333 29.5,52C 28.2721,50.5098 28.2721,49.0098 29.5,47.5 Z"/></g>
<g><path style="opacity:0.768" fill="#fefffe" d="M 26.5,59.5 C 49.1667,65.1667 71.8333,70.8333 94.5,76.5C 94.9899,78.9484 94.1566,80.615 92,81.5C 69.8783,75.5947 47.7116,69.928 25.5,64.5C 25.366,62.7085 25.6993,61.0418 26.5,59.5 Z"/></g>
<g><path style="opacity:0.768" fill="#fefffe" d="M 53.5,79.5 C 64.4179,82.4798 75.4179,85.3131 86.5,88C 88.8609,88.1968 90.5276,89.3635 91.5,91.5C 90.8291,92.9458 89.6624,93.6125 88,93.5C 75.7415,90.9365 63.7415,87.6032 52,83.5C 51.7003,81.9343 52.2003,80.601 53.5,79.5 Z"/></g>
</svg>
