<?xml version="1.0" encoding="UTF-8"?>
<!DOCTYPE svg PUBLIC "-//W3C//DTD SVG 1.1//EN" "http://www.w3.org/Graphics/SVG/1.1/DTD/svg11.dtd">
<svg xmlns="http://www.w3.org/2000/svg" version="1.1" width="256px" height="256px" style="shape-rendering:geometricPrecision; text-rendering:geometricPrecision; image-rendering:optimizeQuality; fill-rule:evenodd; clip-rule:evenodd" xmlns:xlink="http://www.w3.org/1999/xlink">
<g><path style="opacity:0.972" fill="#19689f" d="M 114.5,10.5 C 138.678,15.0437 162.678,20.5437 186.5,27C 190.49,28.9904 192.99,32.1571 194,36.5C 194.207,41.1756 193.374,45.6756 191.5,50C 204.264,53.0242 216.931,56.3575 229.5,60C 230.667,61.1667 231.833,62.3333 233,63.5C 234.653,114.108 234.986,164.775 234,215.5C 230.826,228.007 223.326,236.84 211.5,242C 188.215,243.147 164.881,243.647 141.5,243.5C 118.119,243.647 94.7854,243.147 71.5,242C 56.7388,235.342 48.7388,223.842 47.5,207.5C 25.7503,199.678 17.2503,184.344 22,161.5C 32.3769,116.659 43.3769,71.9926 55,27.5C 57.9523,22.9403 62.119,20.9403 67.5,21.5C 79.5665,23.2129 91.3998,25.8795 103,29.5C 104.66,24.8798 106.326,20.2131 108,15.5C 109.965,13.4497 112.132,11.783 114.5,10.5 Z"/></g>
<g><path style="opacity:1" fill="#fcfdfd" d="M 115.5,19.5 C 118.187,19.3359 120.854,19.5026 123.5,20C 143.42,25.3134 163.42,30.3134 183.5,35C 184.894,35.956 185.561,37.2894 185.5,39C 183.255,48.1485 181.088,57.3152 179,66.5C 177.883,68.1243 176.383,69.1243 174.5,69.5C 152.838,64.1676 131.171,58.6676 109.5,53C 108.196,52.196 107.529,51.0293 107.5,49.5C 109.863,39.3785 112.53,29.3785 115.5,19.5 Z"/></g>
<g><path style="opacity:1" fill="#00adee" d="M 64.5,29.5 C 77.4615,31.2403 90.1282,34.2403 102.5,38.5C 96.9133,48.2239 98.9133,55.7239 108.5,61C 131.329,67.4587 154.329,72.792 177.5,77C 180.548,76.3936 183.048,74.8936 185,72.5C 186.5,67.8333 188,63.1667 189.5,58.5C 200.135,61.0996 210.801,63.5996 221.5,66C 222.931,66.4652 224.097,67.2986 225,68.5C 225.496,73.208 225.162,77.8747 224,82.5C 213.861,122.721 204.195,163.055 195,203.5C 191.466,217.708 182.466,225.374 168,226.5C 128.037,218.032 88.2033,208.865 48.5,199C 34.3135,193.802 27.8135,183.635 29,168.5C 39.6605,123.857 50.3272,79.1901 61,34.5C 61.9973,32.6769 63.1639,31.0103 64.5,29.5 Z"/></g>
<g><path style="opacity:1" fill="#1569a0" d="M 67.5,71.5 C 112.286,82.0297 156.952,93.1964 201.5,105C 203.395,108.733 202.395,111.233 198.5,112.5C 155.162,101.332 111.828,90.1655 68.5,79C 66.2854,76.7585 65.9521,74.2585 67.5,71.5 Z"/></g>
<g><path style="opacity:1" fill="#1569a0" d="M 60.5,96.5 C 66.9061,97.1838 73.2394,98.3505 79.5,100C 117.795,110.157 156.129,120.157 194.5,130C 196.395,133.733 195.395,136.233 191.5,137.5C 148.139,126.327 104.806,115.16 61.5,104C 59.2854,101.758 58.9521,99.2585 60.5,96.5 Z"/></g>
<g><path style="opacity:1" fill="#a5c4d9" d="M 225.5,212.5 C 225.832,179.329 225.498,146.329 224.5,113.5C 224.491,111.692 224.991,110.025 226,108.5C 226.831,143.336 226.664,178.002 225.5,212.5 Z"/></g>
<g><path style="opacity:1" fill="#fcfcfd" d="M 224.5,113.5 C 225.498,146.329 225.832,179.329 225.5,212.5C 223.268,223.901 216.602,231.401 205.5,235C 162.833,235.667 120.167,235.667 77.5,235C 65.0074,231.013 58.3407,222.513 57.5,209.5C 91.8899,217.351 126.223,225.517 160.5,234C 181.25,236.55 195.084,228.05 202,208.5C 209.661,176.856 217.161,145.189 224.5,113.5 Z"/></g>
<g><path style="opacity:1" fill="#1569a0" d="M 53.5,121.5 C 98.7428,131.352 143.576,142.686 188,155.5C 189.484,159.549 188.151,161.549 184,161.5C 140.804,150.794 97.6372,139.961 54.5,129C 51.0338,126.806 50.7005,124.306 53.5,121.5 Z"/></g>
<g><path style="opacity:1" fill="#1569a0" d="M 106.5,161.5 C 131.556,166.972 156.39,173.306 181,180.5C 181.667,182.167 181.667,183.833 181,185.5C 178.263,186.61 175.429,186.777 172.5,186C 151.822,180.664 131.155,175.331 110.5,170C 105.695,168.822 104.362,165.988 106.5,161.5 Z"/></g>
</svg>
